<?xml version="1.0" encoding="UTF-8"?>
<svg id="Capa_2" data-name="Capa 2" xmlns="http://www.w3.org/2000/svg" viewBox="0 0 142.92 142.92">
  <defs>
    <style>
      .cls-1 {
        fill: #fff;
      }

      .cls-2 {
        fill: #1e46df;
      }
    </style>
  </defs>
  <g id="Capa_1-2" data-name="Capa 1">
    <g>
      <rect class="cls-2" x="0" width="142.92" height="142.92" rx="27.69" ry="27.69"/>
      <g>
        <path class="cls-1" d="M98.73,69.74c3.67-2.65,6.92-4.7,6.92-9.91s-3.85-8.37-9.06-8.37c-6.32,0-10.6,4.02-10.68,10.68h-11.02c.26-11.36,7.69-20.51,21.62-20.51,13.07,0,20.76,7.78,20.76,17.86,0,8.46-4.44,11.88-8.12,14.7-6.41,4.87-8.89,5.72-8.89,11.79h-10.42c0-10,3.67-12.48,8.89-16.24ZM95.05,90.58c3.85,0,6.92,2.82,6.92,6.75s-3.08,6.84-6.92,6.84-6.92-2.82-6.92-6.84,3.08-6.75,6.92-6.75Z"/>
        <path class="cls-1" d="M78.95,95.1c-5.65,5.61-13.43,9.07-22.02,9.07-17.27,0-31.27-14-31.27-31.27,0-8.59,3.46-16.37,9.07-22.02,5.67-5.71,13.52-9.25,22.2-9.25,5.6,0,10.85,1.47,15.39,4.05-1.28,1.79-2.34,3.77-3.16,5.89-.51,1.31-.92,2.67-1.24,4.07-3.18-2.03-6.95-3.2-10.99-3.2-5.7,0-10.85,2.33-14.56,6.09-3.65,3.7-5.91,8.78-5.91,14.38,0,11.3,9.16,20.47,20.47,20.47,5.61,0,10.69-2.25,14.38-5.91l7.64,7.64Z"/>
      </g>
    </g>
  </g>
</svg>
