<?xml version="1.0" encoding="UTF-8"?>
<svg id="Capa_2" data-name="Capa 2" xmlns="http://www.w3.org/2000/svg" viewBox="0 0 427.15 83.71">
  <defs>
    <style>
      .cls-1 {
        fill: #1d1d1f;
      }

      .cls-2 {
        fill: #1e46df;
      }
    </style>
  </defs>
  <g id="Capa_1-2" data-name="Capa 1">
    <g>
      <g>
        <path class="cls-1" d="M128.04,41.91c0-7.83,5.12-13.87,13.12-13.87,6.81,0,11.02,3.94,11.94,9.62h-6.81c-.46-2.3-2.25-4.04-4.82-4.04-4.2,0-6.35,3.22-6.35,8.29s2,8.29,6.25,8.29c2.82,0,4.82-1.48,5.28-4.45h6.71c-.46,5.58-4.82,10.03-11.84,10.03-8.3,0-13.47-6.04-13.47-13.87Z"/>
        <path class="cls-1" d="M172.62,52.09h-.1c-1.33,2-3.23,3.53-7.74,3.53-5.38,0-9.17-2.81-9.17-8.03,0-5.78,4.71-7.63,10.55-8.44,4.35-.61,6.35-.97,6.35-2.97,0-1.89-1.49-3.12-4.41-3.12-3.28,0-4.87,1.18-5.07,3.68h-6.2c.2-4.61,3.64-8.65,11.32-8.65s11.07,3.53,11.07,9.67v13.36c0,2,.31,3.17.92,3.63v.26h-6.71c-.41-.51-.67-1.74-.82-2.92ZM172.67,45.75v-3.94c-1.23.72-3.13,1.13-4.87,1.54-3.64.82-5.43,1.64-5.43,4.09s1.64,3.33,4.1,3.33c4,0,6.2-2.46,6.2-5.02Z"/>
        <path class="cls-1" d="M183.63,28.76h6.71v3.28h.15c1.69-2.3,4.15-3.99,7.74-3.99,6.97,0,11.43,5.68,11.43,13.87s-4.61,13.87-11.37,13.87c-3.69,0-6.1-1.48-7.58-3.74h-.1v11.57h-6.97V28.76ZM202.59,42.11c0-4.96-1.74-8.44-6.05-8.44s-6.1,3.74-6.1,8.44,2.2,7.88,6.35,7.88c3.54,0,5.79-2.92,5.79-7.88Z"/>
        <path class="cls-1" d="M228.62,52.09h-.1c-1.33,2-3.23,3.53-7.74,3.53-5.38,0-9.17-2.81-9.17-8.03,0-5.78,4.71-7.63,10.55-8.44,4.35-.61,6.35-.97,6.35-2.97,0-1.89-1.49-3.12-4.41-3.12-3.28,0-4.87,1.18-5.07,3.68h-6.2c.2-4.61,3.64-8.65,11.32-8.65s11.07,3.53,11.07,9.67v13.36c0,2,.31,3.17.92,3.63v.26h-6.71c-.41-.51-.67-1.74-.82-2.92ZM228.67,45.75v-3.94c-1.23.72-3.13,1.13-4.87,1.54-3.64.82-5.43,1.64-5.43,4.09s1.64,3.33,4.1,3.33c4,0,6.2-2.46,6.2-5.02Z"/>
        <path class="cls-1" d="M238.76,49.69l13.53-15.3v-.15h-11.99v-5.48h20.08v5.58l-13.22,14.94v.15h13.88v5.58h-22.29v-5.32Z"/>
        <path class="cls-1" d="M285.69,51.07h-.1c-2,2.97-4.66,4.61-8.66,4.61-7.12,0-11.27-5.68-11.27-13.82,0-8.8,5.02-13.87,11.27-13.87,4.1,0,6.87,1.84,8.66,4.76h.1v-4.2h3.18v34.95h-3.18v-12.44ZM285.95,41.91c0-6.5-2.97-11.26-8.81-11.26-5.28,0-8.25,4.66-8.25,11.26,0,6.19,2.56,11.1,8.2,11.1s8.86-4.5,8.86-11.1Z"/>
        <path class="cls-1" d="M296.04,47.23v-18.68h3.18v18.47c0,3.99,2.41,5.94,6.25,5.94,4.51,0,7.69-3.38,7.69-7.88v-16.53h3.13v26.46h-3.13v-3.89h-.1c-1.84,2.56-4.1,4.5-8.3,4.5-5.12,0-8.71-3.07-8.71-8.39Z"/>
        <path class="cls-1" d="M322.27,41.81c0-7.93,4.76-13.87,12.09-13.87,2.77,0,5.07.82,6.87,2.3,3.23,2.61,4.56,6.76,4.51,12.13h-20.19c.15,5.94,3.02,10.59,9.07,10.59,4.41,0,6.71-2.35,7.74-5.94h3.07c-1.13,5.22-4.87,8.65-10.81,8.65-7.94,0-12.35-5.94-12.35-13.87ZM342.41,39.86c-.15-5.22-2.61-9.31-8.04-9.31s-8.2,4.04-8.76,9.31h16.8Z"/>
        <path class="cls-1" d="M350.04,46.77h3.23c.46,4.45,3.54,6.24,7.79,6.24s6.71-2.05,6.71-5.12-1.64-3.89-7.07-5.12c-5.38-1.23-9.68-2.51-9.68-7.63,0-4.4,3.79-7.16,9.22-7.16,6.3,0,9.22,3.17,9.84,7.83h-3.18c-.36-3.43-2.72-5.22-6.66-5.22s-6.05,1.94-6.05,4.4c0,3.02,2.51,3.74,7.58,4.91,5.33,1.13,9.17,2.46,9.17,7.93,0,4.71-3.79,7.88-9.94,7.88-7.07,0-10.66-3.84-10.96-8.96Z"/>
        <path class="cls-1" d="M378.58,18.88c1.13,0,2.05.92,2.05,2.05s-.92,2.05-2.05,2.05-2.05-.92-2.05-2.05.92-2.05,2.05-2.05ZM376.99,28.55h3.18v26.46h-3.18v-26.46Z"/>
        <path class="cls-1" d="M391.29,53.01c0,1.23-.97,2.2-2.2,2.2s-2.2-.97-2.2-2.2.97-2.2,2.2-2.2,2.2.97,2.2,2.2Z"/>
        <path class="cls-1" d="M395.23,41.81c0-7.88,4.41-13.87,12.09-13.87,5.84,0,9.79,3.17,10.66,8.6h-3.18c-.77-3.94-3.38-5.94-7.48-5.94-6.1,0-8.81,5.07-8.81,11.21s2.77,11.16,8.76,11.16c4.51,0,7.33-2.81,7.84-7.06h3.02c-.61,5.99-4.56,9.77-10.86,9.77-7.74,0-12.04-5.99-12.04-13.87Z"/>
        <path class="cls-1" d="M423.98,18.42h3.18v36.59h-3.18V18.42Z"/>
      </g>
      <g>
        <path class="cls-2" d="M97.91,37.62c4.92-3.55,9.27-6.29,9.27-13.27s-5.15-11.21-12.14-11.21c-8.47,0-14.2,5.37-14.31,14.29h-14.77C66.31,12.24,76.27,0,94.93,0,112.45,0,122.75,10.41,122.75,23.9c0,11.32-5.95,15.9-10.88,19.67-8.59,6.52-11.91,7.66-11.91,15.78h-13.97c0-13.38,4.92-16.7,11.91-21.73ZM92.98,65.53c5.15,0,9.27,3.77,9.27,9.03s-4.12,9.15-9.27,9.15-9.27-3.77-9.27-9.15,4.12-9.03,9.27-9.03Z"/>
        <path class="cls-2" d="M71.41,71.57c-7.57,7.5-18,12.14-29.51,12.14C18.76,83.71,0,64.97,0,41.86c0-11.5,4.64-21.91,12.15-29.48C19.75,4.73,30.27,0,41.9,0c7.5,0,14.54,1.97,20.63,5.42-1.72,2.4-3.13,5.04-4.24,7.88-.68,1.76-1.24,3.58-1.66,5.45-4.26-2.71-9.31-4.28-14.73-4.28-7.63,0-14.54,3.12-19.51,8.14-4.89,4.95-7.91,11.74-7.91,19.25,0,15.13,12.28,27.39,27.42,27.39,7.51,0,14.32-3.02,19.27-7.9l10.24,10.23Z"/>
      </g>
    </g>
  </g>
</svg>